<svg xmlns="http://www.w3.org/2000/svg" viewBox="0 0 8.4666665 9" version="1.1" x="0px" y="0px"><g transform="translate(0,-288.6)"><path d="m 3.9027036,288.73185 c -0.5909946,0 -1.1144489,0.28966 -1.4397065,0.73326 l 3.5408686,0 c -0.325255,-0.4436 -0.8487119,-0.73326 -1.4397038,-0.73326 z" /><path d="m 2.1166708,290.90879 0,0.66714 0.6614583,0 0,2.38125 -0.6614583,0 0,0.92605 c 7.9e-6,0.073 0.059232,0.13226 0.1322916,0.13229 l 3.9687501,0 c 0.073059,-3e-5 0.1322838,-0.0592 0.1322917,-0.13229 l 0,-0.92605 -0.6614584,0 0,-2.38125 0.6614584,0 0,-0.66714 z m 1.1813222,0.7307 a 0.13230488,0.13230489 0 0 1 0.013441,0 l 1.8484665,0 a 0.13230488,0.13230489 0 1 1 0,0.26459 l -1.8484665,0 a 0.13246226,0.13246227 0 1 1 -0.013441,-0.26459 z m 0,0.52917 a 0.13230488,0.13230489 0 0 1 0.013441,0 l 1.8484665,0 a 0.13230488,0.13230489 0 1 1 0,0.26458 l -1.8484665,0 a 0.13246226,0.13246227 0 1 1 -0.013441,-0.26458 z m 0.4082442,0.79375 1.0583334,0 0,1.32292 -1.0583334,0 z" /><path d="m 2.6458427,295.2175 0.3080306,0.30803 a 0.52916668,0.52916672 0 0 0 0.3741791,0.15499 l 1.8105808,0 a 0.52916668,0.52916672 0 0 0 0.374179,-0.15499 l 0.3080306,-0.30803" fill="currentColor" fill-rule="evenodd" stroke="none"/><path d="m 5.2917661,289.92247 0,0.52917 1.0547138,0 c -0.00683,-0.18497 -0.041616,-0.36258 -0.1007692,-0.52917 z" fill="currentColor" fill-rule="evenodd" stroke="none"/><path d="m 4.5640667,290.18687 a 0.33072918,0.3307292 0 0 1 -0.3307292,0.33073 0.33072918,0.3307292 0 0 1 -0.3307292,-0.33073 0.33072918,0.3307292 0 0 1 0.3307292,-0.33073 0.33072918,0.3307292 0 0 1 0.3307292,0.33073 z" style="opacity:1;fill:#000000;fill-opacity:1;stroke:none;stroke-width:1;stroke-linecap:butt;stroke-linejoin:round;stroke-miterlimit:4;stroke-dasharray:none;stroke-opacity:1"/><path d="m 2.2211521,289.92247 c -0.059153,0.16659 -0.093948,0.3442 -0.1007692,0.52917 l 1.0547165,0 0,-0.52917 z" fill="currentColor" fill-rule="evenodd" stroke="none"/><path d="m 3.1750094,295.87541 -0.396875,0.92605 2.9104167,0 -0.396875,-0.92605 -0.9260417,0 0,0.52917 -0.2645833,0 0,-0.52917 z" fill="currentColor" fill-rule="evenodd" stroke="none"/><path style="" d="m 7.009584,293.36187 0,1.19063" fill="currentColor" fill-rule="evenodd" stroke="none"/><path style="" d="m 6.6145875,291.31135 0.5291667,0 a 0.26458334,0.26458336 0 0 1 0.2645834,0.26458 l 0,1.5875 a 0.26458334,0.26458336 0 0 1 -0.2645834,0.26459 l -0.5291667,0 z" fill="currentColor" fill-rule="evenodd" stroke="none"/><path d="m 6.6145875,296.27229 1.1887386,0 0,-0.1777 c 0,-0.14033 -0.055753,-0.27492 -0.1549876,-0.37417 l -0.164391,-0.16438 c -0.04962,-0.0496 -0.077496,-0.11692 -0.077496,-0.18709 l 0,-0.55187 c 0,-0.14613 -0.1184566,-0.26458 -0.2645834,-0.26458 l -0.5272802,0" fill="currentColor" fill-rule="evenodd" stroke="none"/><rect y="293.6926" x="6.7468791" height="0.59531254" width="0.39687502" style="opacity:1;fill:#000000;fill-opacity:1;stroke:none;stroke-width:2.5;stroke-linecap:butt;stroke-linejoin:round;stroke-miterlimit:4;stroke-dasharray:none;stroke-opacity:1"/><path d="m 1.8520795,291.31135 -0.5291667,0 a 0.26458334,0.26458336 0 0 0 -0.2645833,0.26458 l 0,1.5875 a 0.26458334,0.26458336 0 0 0 0.2645833,0.26459 l 0.5291667,0 z" fill="currentColor" fill-rule="evenodd" stroke="none"/><path style="" d="m 1.8520795,296.27229 -1.18873857,0 0,-0.1777 c 0,-0.14033 0.055753,-0.27492 0.15498763,-0.37417 l 0.16439092,-0.16438 c 0.0496199,-0.0496 0.0774964,-0.11692 0.0774964,-0.18709 l 0,-0.55187 c 0,-0.14613 0.1184566,-0.26458 0.2645834,-0.26458 l 0.5272802,0" fill="currentColor" fill-rule="evenodd" stroke="none"/><rect transform="scale(-1,1)" style="opacity:1;fill:#000000;fill-opacity:1;stroke:none;stroke-width:2.5;stroke-linecap:butt;stroke-linejoin:round;stroke-miterlimit:4;stroke-dasharray:none;stroke-opacity:1" width="0.39687502" height="0.59531254" x="-1.7197957" y="293.6926"/></g></svg>