<svg xmlns="http://www.w3.org/2000/svg" width="40" height="40.005" viewBox="0 0 40 40.005"><g transform="translate(-0.298 -0.857)"><ellipse cx="20" cy="20.002" rx="20" ry="20.002" transform="translate(0.298 0.857)" fill="#ff006c"/><path d="M0-9.594A3.585,3.585,0,0,0-3.588-6,3.585,3.585,0,0,0,0-2.413,3.585,3.585,0,0,0,3.594-6,3.585,3.585,0,0,0,0-9.594ZM0-3.669A2.339,2.339,0,0,1-2.331-6,2.337,2.337,0,0,1,0-8.337,2.337,2.337,0,0,1,2.337-6,2.339,2.339,0,0,1,0-3.669ZM4.578-9.741a.838.838,0,0,0-.837-.837.838.838,0,0,0-.837.837.836.836,0,0,0,.837.838A.836.836,0,0,0,4.578-9.741Zm2.378.85a4.145,4.145,0,0,0-1.131-2.934,4.172,4.172,0,0,0-2.934-1.131c-1.156-.066-4.622-.066-5.778,0a4.166,4.166,0,0,0-2.934,1.128A4.158,4.158,0,0,0-6.953-8.894c-.066,1.156-.066,4.622,0,5.778A4.145,4.145,0,0,0-5.822-.181,4.177,4.177,0,0,0-2.888.95c1.156.066,4.622.066,5.778,0A4.145,4.145,0,0,0,5.825-.181,4.172,4.172,0,0,0,6.956-3.116c.066-1.156.066-4.619,0-5.775ZM5.462-1.875A2.363,2.363,0,0,1,4.131-.544,15.434,15.434,0,0,1,0-.262,15.555,15.555,0,0,1-4.125-.544,2.363,2.363,0,0,1-5.456-1.875,15.434,15.434,0,0,1-5.738-6a15.555,15.555,0,0,1,.281-4.128,2.363,2.363,0,0,1,1.331-1.331A15.434,15.434,0,0,1,0-11.744a15.555,15.555,0,0,1,4.128.281,2.363,2.363,0,0,1,1.331,1.331A15.434,15.434,0,0,1,5.744-6,15.425,15.425,0,0,1,5.462-1.875Z" transform="translate(20.3 26.862)" fill="#fff"/></g></svg>