<svg xmlns="http://www.w3.org/2000/svg" width="40" height="40" viewBox="0 0 40 40"><g transform="translate(-0.026 -1.857)"><circle cx="20" cy="20" r="20" transform="translate(0.026 1.857)" fill="#e74c3c"/><path d="M8.177-10.122a2.144,2.144,0,0,0-1.509-1.519A50.678,50.678,0,0,0,0-12a50.678,50.678,0,0,0-6.668.359,2.144,2.144,0,0,0-1.509,1.519,22.5,22.5,0,0,0-.357,4.135,22.5,22.5,0,0,0,.357,4.135A2.113,2.113,0,0,0-6.668-.359,50.678,50.678,0,0,0,0,0,50.678,50.678,0,0,0,6.668-.359,2.113,2.113,0,0,0,8.177-1.853a22.5,22.5,0,0,0,.357-4.135A22.5,22.5,0,0,0,8.177-10.122ZM-1.745-3.45V-8.525L2.715-5.988-1.745-3.45Z" transform="translate(20.559 27.857)" fill="#fff"/></g></svg>